<svg fill="none" xmlns="http://www.w3.org/2000/svg" width="22" height="13" viewBox="0 0 22 13"><path d="M21.33 11.09c-.06-.1-.4-.86-2.09-2.42-1.76-1.64-1.53-1.37.6-4.2 1.29-1.72 1.8-2.77 1.64-3.22-.15-.43-1.1-.32-1.1-.32l-3.16.02s-.23-.03-.41.07c-.17.1-.28.34-.28.34s-.5 1.34-1.17 2.47c-1.4 2.39-1.97 2.52-2.2 2.37-.53-.35-.4-1.4-.4-2.13 0-2.32.35-3.29-.68-3.54-.35-.08-.6-.14-1.48-.15-1.13 0-2.08 0-2.62.27-.37.18-.64.57-.47.6.2.02.68.12.93.46.33.44.31 1.44.31 1.44s.19 2.72-.43 3.06c-.43.23-1.01-.24-2.27-2.41-.64-1.11-1.13-2.34-1.13-2.34s-.1-.23-.26-.35c-.2-.15-.49-.2-.49-.2l-3 .02s-.45.01-.62.21c-.14.18 0 .54 0 .54s2.34 5.5 5 8.27c2.45 2.55 5.23 2.38 5.23 2.38h1.25s.38-.04.57-.25c.18-.2.18-.55.18-.55s-.03-1.69.76-1.94c.77-.24 1.76 1.63 2.8 2.35.8.55 1.4.43 1.4.43l2.82-.04s1.46-.09.77-1.24z" fill="#654e3d"/></svg>
