<svg fill="none" xmlns="http://www.w3.org/2000/svg" width="21" height="15" viewBox="0 0 21 15"><path d="M18.73 6.7c1.12-.1 1.89-.6 2.18-1.3a3.6 3.6 0 01-2.36.26 8.72 8.72 0 00-.11-.46c-.53-1.95-2.35-3.52-4.26-3.33l.47-.17c.2-.08 1.44-.28 1.25-.71-.17-.39-1.67.28-1.95.37.37-.14.99-.38 1.05-.8-.57.07-1.13.34-1.57.73.16-.17.28-.37.3-.6-1.52.98-2.41 2.95-3.14 4.86a7.48 7.48 0 00-1.51-1.22 39.62 39.62 0 00-5.15-2.27c-.08.78.38 1.83 1.71 2.52a4.2 4.2 0 00-1.23.15c.17.9.73 1.64 2.25 2-.7.05-1.06.2-1.38.54.32.63 1.09 1.36 2.47 1.21-1.54.67-.63 1.9.63 1.71a5.32 5.32 0 01-7.45.2C6 17.28 16.97 14.46 18.61 7.83c1.22.01 1.94-.42 2.39-.9-.7.12-1.73 0-2.27-.23z" fill="#654e3d"/></svg>
